<?xml version="1.0" standalone="no"?><!DOCTYPE svg PUBLIC "-//W3C//DTD SVG 1.1//EN" "http://www.w3.org/Graphics/SVG/1.1/DTD/svg11.dtd"><svg t="1726743341228" class="icon" viewBox="0 0 1024 1024" version="1.1" xmlns="http://www.w3.org/2000/svg" p-id="4322" xmlns:xlink="http://www.w3.org/1999/xlink" width="200" height="200"><path d="M390.4 480H217.6A89.696 89.696 0 0 1 128 390.4V217.6C128 168.192 168.192 128 217.6 128h172.8c49.408 0 89.6 40.192 89.6 89.6v172.8c0 49.408-40.192 89.6-89.6 89.6zM217.6 192c-14.112 0-25.6 11.488-25.6 25.6v172.8c0 14.112 11.488 25.6 25.6 25.6h172.8c14.112 0 25.6-11.488 25.6-25.6V217.6c0-14.112-11.488-25.6-25.6-25.6H217.6zM806.4 480H633.6a89.696 89.696 0 0 1-89.6-89.6V217.6c0-49.408 40.192-89.6 89.6-89.6h172.8c49.408 0 89.6 40.192 89.6 89.6v172.8c0 49.408-40.192 89.6-89.6 89.6zM633.6 192c-14.112 0-25.6 11.488-25.6 25.6v172.8c0 14.112 11.488 25.6 25.6 25.6h172.8c14.112 0 25.6-11.488 25.6-25.6V217.6c0-14.112-11.488-25.6-25.6-25.6H633.6zM390.4 896H217.6A89.696 89.696 0 0 1 128 806.4V633.6c0-49.408 40.192-89.6 89.6-89.6h172.8c49.408 0 89.6 40.192 89.6 89.6v172.8c0 49.408-40.192 89.6-89.6 89.6zM217.6 608c-14.112 0-25.6 11.488-25.6 25.6v172.8c0 14.112 11.488 25.6 25.6 25.6h172.8c14.112 0 25.6-11.488 25.6-25.6V633.6c0-14.112-11.488-25.6-25.6-25.6H217.6zM720 896c-97.04 0-176-78.96-176-176s78.96-176 176-176 176 78.96 176 176-78.96 176-176 176z m0-288c-61.744 0-112 50.256-112 112s50.256 112 112 112 112-50.256 112-112-50.256-112-112-112z" fill="#231815" p-id="4323"></path></svg>